REM MD5 8913da6a13ad7f423a7e42e0eb96d824
FILE "Euro Demo 03-01 (Germany).bin" BINARY
  TRACK 01 MODE2/2352
    INDEX 01 00:00:00
  TRACK 02 AUDIO
    INDEX 00 60:22:46
    INDEX 01 60:24:46
  TRACK 03 AUDIO
    INDEX 00 61:26:09
    INDEX 01 61:28:09
  TRACK 04 AUDIO
    INDEX 00 62:29:58
    INDEX 01 62:31:58
  TRACK 05 AUDIO
    INDEX 00 62:54:50
    INDEX 01 62:56:50
REM LEADOUT 65:58:07
